HIERARCHY
ROOT hip
{
	OFFSET 0.000000 0.000000 0.000000 
	CHANNELS 6 Xposition Yposition Zposition Xrotation Zrotation Yrotation
	JOINT abdomen
	{
		OFFSET 0.000000 3.402643 0.000000 
		CHANNELS 3 Xrotation Zrotation Yrotation
		JOINT chest
		{
			OFFSET 0.000000 8.438565 -0.680529 
			CHANNELS 3 Xrotation Zrotation Yrotation
			JOINT neck
			{
				OFFSET 0.000000 10.207942 -0.272212 
				CHANNELS 3 Xrotation Zrotation Yrotation
				JOINT head
				{
					OFFSET 0.000000 3.130431 0.000000 
					CHANNELS 3 Xrotation Zrotation Yrotation
					End Site
					{
						OFFSET 0.000000 3.130435 0.000000 
					}
				}
			}
			JOINT lCollar
			{
				OFFSET 3.470700 6.669187 -0.816635 
				CHANNELS 3 Yrotation Zrotation Xrotation
				JOINT lShldr
				{
					OFFSET 3.198488 0.000000 0.000000 
					CHANNELS 3 Zrotation Yrotation Xrotation
					JOINT lForeArm
					{
						OFFSET 10.139888 0.000000 0.000000 
						CHANNELS 3 Yrotation Zrotation Xrotation
						JOINT lHand
						{
							OFFSET 8.370511 0.000000 0.000000 
							CHANNELS 3 Zrotation Yrotation Xrotation
							End Site
							{
								OFFSET 4.083176 0.000000 0.000000 
							}
						}
					}
				}
			}
			JOINT rCollar
			{
				OFFSET -3.470700 6.669187 -0.816635 
				CHANNELS 3 Yrotation Zrotation Xrotation
				JOINT rShldr
				{
					OFFSET -3.198488 0.000000 0.000000 
					CHANNELS 3 Zrotation Yrotation Xrotation
					JOINT rForeArm
					{
						OFFSET -10.139888 0.000000 0.000000 
						CHANNELS 3 Yrotation Zrotation Xrotation
						JOINT rHand
						{
							OFFSET -8.370511 0.000000 0.000000 
							CHANNELS 3 Zrotation Yrotation Xrotation
							End Site
							{
								OFFSET -4.083176 0.000000 0.000000 
							}
						}
					}
				}
			}
		}
	}
	JOINT lThigh
	{
		OFFSET 5.308129 -1.633274 1.361059 
		CHANNELS 3 Xrotation Zrotation Yrotation
		JOINT lShin
		{
			OFFSET -2.041588 -20.007561 0.000000 
			CHANNELS 3 Xrotation Zrotation Yrotation
			JOINT lFoot
			{
				OFFSET 0.000000 -19.190928 -1.224953 
				CHANNELS 3 Xrotation Yrotation Zrotation
				End Site
				{
					OFFSET 0.000000 -2.449906 4.627600 
				}
			}
		}
	}
	JOINT rThigh
	{
		OFFSET -5.308129 -1.633274 1.361059 
		CHANNELS 3 Xrotation Zrotation Yrotation
		JOINT rShin
		{
			OFFSET 2.041588 -20.007561 0.000000 
			CHANNELS 3 Xrotation Zrotation Yrotation
			JOINT rFoot
			{
				OFFSET 0.000000 -19.190928 -1.224953 
				CHANNELS 3 Xrotation Yrotation Zrotation
				End Site
				{
					OFFSET 0.000000 -2.449906 4.627600 
				}
			}
		}
	}
}
MOTION
Frames: 20
Frame Time: 0.016667
0.244026 52.280338 -0.752005 -10.195313 -0.039063 6.835930 30.029295 1.777344 0.585937 -0.693359 1.855469 -2.041015 -11.162109 -4.531250 0.732422 6.113281 1.572266 -7.948950 -4.677734 -12.236327 -0.642462 -50.097656 0.380859 -2.812437 -29.775393 -5.000000 27.861326 -27.031250 -4.912109 22.832033 -1.074219 11.396520 -0.597630 46.523441 2.998047 0.176292 36.953125 4.990234 25.126949 25.996094 -20.019531 5.826736 16.256779 21.375109 6.387175 2.056692 -7.308965 -0.574630 -2.249888 7.591157 -12.242916 20.874174 -8.759809 -24.957098 2.224802 1.397996 0.037722 -3.659846 -5.815083 11.625434 
0.244659 52.281548 -0.743573 -10.156250 -0.039063 6.816400 29.980471 1.787109 0.566711 -0.683594 1.855469 -2.021484 -11.123048 -4.501954 0.712891 6.142578 1.562500 -7.929384 -4.658203 -12.226563 -0.642463 -50.058594 0.410156 -2.822196 -29.609375 -5.000000 27.919924 -27.001953 -5.009766 22.967897 -1.064453 11.494141 -0.605469 46.552731 2.949219 0.156250 37.060543 4.990234 25.146484 26.308594 -20.214846 5.777877 16.249226 21.366474 6.473834 2.056556 -7.298776 -0.564888 -2.263354 7.521811 -12.260215 20.846775 -8.769611 -24.918962 2.195166 1.407846 0.046017 -3.652494 -5.802672 11.608809 
0.244118 52.282024 -0.731421 -10.136718 -0.039063 6.826165 29.931641 1.787109 0.566711 -0.683594 1.875000 -2.041015 -11.054688 -4.453125 0.703125 6.191407 1.562500 -7.909853 -4.658203 -12.207031 -0.652232 -50.009766 0.478516 -2.871098 -29.492189 -5.000000 27.910154 -26.992189 -5.029297 23.173828 -1.064453 11.582030 -0.625000 46.591793 2.900391 0.117188 37.080074 4.990234 25.263672 26.445313 -20.224611 5.758343 16.230059 21.367022 6.521586 2.065178 -7.265853 -0.565912 -2.243084 7.463484 -12.294423 20.867901 -8.750639 -24.894316 2.172690 1.405883 0.064490 -3.638188 -5.882844 11.608101 
0.242797 52.282024 -0.716789 -10.136718 -0.039063 6.835931 29.902342 1.748047 0.566406 -0.673828 1.884766 -2.060547 -10.966796 -4.394531 0.692611 6.240234 1.572266 -7.890357 -4.658203 -12.197266 -0.652234 -49.980465 0.556641 -2.939357 -29.443357 -5.000000 27.832880 -27.031250 -5.000000 23.417973 -1.074219 11.660156 -0.626974 46.621094 2.851563 0.087891 37.031250 4.990234 25.448368 26.474609 -20.126953 5.791016 16.268105 21.375980 6.558802 2.056457 -7.288722 -0.574641 -2.258025 7.443112 -12.280478 20.880505 -8.749312 -24.884716 2.175210 1.420328 0.054801 -3.604115 -5.918930 11.571997 
0.241441 52.282024 -0.702638 -10.146485 -0.048828 6.855469 29.882813 1.748047 0.576172 -0.664063 1.904297 -2.080078 -10.878906 -4.335938 0.682855 6.289063 1.582031 -7.870787 -4.658203 -12.187499 -0.642470 -49.960938 0.634766 -2.998047 -29.365234 -5.000000 27.784054 -27.031250 -5.009766 23.613281 -1.074219 11.738281 -0.617221 46.660156 2.792969 0.049304 36.982422 4.990234 25.634762 26.474609 -20.019531 5.820313 16.256733 21.383837 6.579731 2.056315 -7.268747 -0.613640 -2.267141 7.482782 -12.296015 20.923454 -8.730423 -24.880379 2.134724 1.410056 0.072322 -3.616842 -6.001997 11.559010 
0.239938 52.282024 -0.690420 -10.156251 -0.078125 6.904297 29.873049 1.796875 0.556947 -0.664063 1.914063 -2.079752 -10.810547 -4.296875 0.663339 6.357421 1.611328 -7.851562 -4.648437 -12.177734 -0.632706 -49.892578 0.664063 -3.017578 -29.248049 -5.000000 27.890623 -26.904299 -5.146484 23.603518 -1.064453 11.796875 -0.625000 46.669926 2.705078 -0.028834 36.923828 4.990234 25.829229 26.445313 -19.931641 5.836515 16.268827 21.425531 6.539524 2.085741 -7.250145 -0.616605 -2.290688 7.477944 -12.318998 20.965616 -8.691482 -24.900700 2.116908 1.436708 0.071393 -3.593395 -5.957500 11.620731 
0.238438 52.282024 -0.678200 -10.175781 -0.107422 6.962891 29.853518 1.826172 0.537418 -0.673828 1.914063 -2.079752 -10.732422 -4.257813 0.664063 6.416016 1.650391 -7.832032 -4.638672 -12.167969 -0.632707 -49.824219 0.693359 -3.046756 -29.130859 -5.000000 27.998898 -26.787109 -5.283204 23.602619 -1.054688 11.865233 -0.625000 46.689453 2.617188 -0.097656 36.855469 4.990234 26.035154 26.416014 -19.853514 5.869141 16.259611 21.445360 6.502425 2.116609 -7.240726 -0.561040 -2.305010 7.477265 -12.318192 20.990559 -8.622643 -24.913193 2.101840 1.406623 0.070752 -3.616271 -6.046728 11.646441 
0.237684 52.282024 -0.668945 -10.185546 -0.126953 6.962869 29.843750 1.826037 0.537383 -0.654297 1.923828 -2.060219 -10.683594 -4.208984 0.644531 6.464844 1.679688 -7.802449 -4.628906 -12.148438 -0.634766 -49.804688 0.732422 -3.105469 -29.111328 -5.000000 27.978514 -26.718750 -5.302734 23.632811 -1.064453 11.923828 -0.634766 46.669922 2.578125 -0.146484 36.796875 4.990234 26.180788 26.464842 -19.853514 5.878906 16.288195 21.473764 6.532652 2.145157 -7.242620 -0.583515 -2.356294 7.460353 -12.302903 21.028961 -8.613038 -24.891497 2.122928 1.428159 0.062020 -3.658196 -5.989825 11.680268 
0.237117 52.282024 -0.660430 -10.205079 -0.136719 6.953126 29.833986 1.816406 0.537419 -0.625000 1.933594 -2.040686 -10.644531 -4.160156 0.634766 6.513672 1.708984 -7.763673 -4.619141 -12.119142 -0.634766 -49.814453 0.771484 -3.163937 -29.111328 -5.000000 27.929688 -26.679688 -5.312500 23.680738 -1.064453 11.992188 -0.644531 46.660152 2.548828 -0.185547 36.738281 4.990234 26.318356 26.533203 -19.892578 5.875585 16.296410 21.492167 6.558386 2.162993 -7.237565 -0.624514 -2.386072 7.482352 -12.282856 21.029110 -8.613127 -24.851534 2.111684 1.446587 0.012666 -3.635534 -5.993855 11.667983 
0.237848 52.282024 -0.653949 -10.214844 -0.156250 6.943359 29.833986 1.826172 0.527652 -0.615234 1.933594 -2.030921 -10.595702 -4.121094 0.624298 6.542969 1.738281 -7.724314 -4.599609 -12.109375 -0.642483 -49.794922 0.830078 -3.232280 -29.140627 -5.000000 27.861326 -26.660156 -5.312500 23.749096 -1.064453 12.041015 -0.636803 46.660152 2.529297 -0.205078 36.669918 4.990234 26.425777 26.611328 -19.931641 5.914641 16.323368 21.509380 6.586515 2.183864 -7.251893 -0.655710 -2.465482 7.517240 -12.235240 21.034704 -8.623048 -24.823912 2.153450 1.454639 0.014720 -3.625678 -5.993447 11.678912 
0.240530 52.282024 -0.650522 -10.234375 -0.166016 6.933594 29.843750 1.816273 0.547148 -0.615234 1.933594 -2.040686 -10.527344 -4.091797 0.615234 6.562500 1.767578 -7.666016 -4.570313 -12.119142 -0.644531 -49.765625 0.898438 -3.291015 -29.248049 -5.000000 27.734373 -26.689453 -5.322266 23.846752 -1.054688 12.060547 -0.634766 46.679684 2.519531 -0.214844 36.582027 4.990234 26.503906 26.728516 -20.000002 6.012284 16.323458 21.509512 6.576491 2.203930 -7.214792 -0.608899 -2.466887 7.492517 -12.266506 21.046068 -8.602633 -24.809263 2.153568 1.418890 0.024461 -3.673624 -5.978323 11.705544 
0.243212 52.282024 -0.647095 -10.253906 -0.185547 6.914031 29.843750 1.816273 0.566681 -0.615234 1.923828 -2.060219 -10.458985 -4.062500 0.605469 6.582032 1.796875 -7.607115 -4.531250 -12.128906 -0.632714 -49.736328 0.966797 -3.329914 -29.345703 -5.000000 27.618038 -26.718748 -5.332031 23.954168 -1.044922 12.089844 -0.634766 46.718750 2.509766 -0.204649 36.484375 4.990234 26.582031 26.845703 -20.058594 6.100167 16.380505 21.517681 6.586097 2.192173 -7.218186 -0.578721 -2.507160 7.512292 -12.225986 21.071960 -8.594311 -24.787180 2.147724 1.428106 0.014309 -3.660262 -5.928598 11.748114 
0.245711 52.282024 -0.646076 -10.253906 -0.156250 6.884739 29.863281 1.757813 0.556641 -0.625000 1.923828 -2.011391 -10.371094 -4.013672 0.595710 6.591797 1.845703 -7.607420 -4.560547 -12.128906 -0.632714 -49.697266 1.015625 -3.369141 -29.394531 -5.000000 27.617184 -26.621094 -5.400390 24.003906 -1.064453 12.128905 -0.656349 46.708984 2.519531 -0.195312 36.396484 4.990234 26.591795 26.894533 -20.136721 6.129450 16.402699 21.501152 6.604378 2.192377 -7.228608 -0.617715 -2.504310 7.489798 -12.245251 21.062874 -8.633377 -24.797369 2.147372 1.427871 0.033832 -3.648530 -5.963599 11.733599 
0.248210 52.282024 -0.645057 -10.273438 -0.136719 6.855473 29.882813 1.699219 0.546875 -0.625000 1.923828 -1.972329 -10.273437 -3.974609 0.575495 6.601563 1.884766 -7.597335 -4.580078 -12.129067 -0.632719 -49.658203 1.035156 -3.398448 -29.433594 -5.000000 27.625893 -26.533203 -5.478516 24.042969 -1.093750 12.158203 -0.654297 46.699219 2.509766 -0.194885 36.308594 4.990234 26.611326 26.962891 -20.194035 6.139532 16.422333 21.461647 6.618083 2.183411 -7.221189 -0.626453 -2.444658 7.481837 -12.302671 21.082296 -8.681913 -24.790745 2.183543 1.445154 0.006451 -3.625853 -5.937240 11.733919 
0.251214 52.282753 -0.646980 -10.273438 -0.136719 6.845707 29.892578 1.679688 0.547161 -0.625000 1.914062 -1.962565 -10.224608 -3.935547 0.565736 6.621094 1.914063 -7.577799 -4.589844 -12.138672 -0.642478 -49.609375 1.044922 -3.388493 -29.492189 -5.000000 27.646484 -26.464844 -5.537109 24.042027 -1.103516 12.216798 -0.654297 46.669922 2.519531 -0.185547 36.250004 4.990234 26.590946 27.021482 -20.283203 6.181641 16.413343 21.443771 6.592628 2.183417 -7.221187 -0.626453 -2.445671 7.573397 -12.244924 21.066170 -8.671107 -24.817932 2.182189 1.428287 0.035698 -3.614055 -5.998284 11.687480 
0.254555 52.283951 -0.650868 -10.283202 -0.146484 6.845681 29.912109 1.650391 0.556922 -0.615234 1.904297 -1.982097 -10.195313 -3.906250 0.565741 6.650391 1.923828 -7.529296 -4.550782 -12.148438 -0.654297 -49.550777 1.025391 -3.378730 -29.541016 -5.000000 27.686396 -26.416014 -5.595703 24.022484 -1.103516 12.265626 -0.654297 46.630859 2.539063 -0.185547 36.191402 4.990234 26.542969 27.080080 -20.371094 6.217303 16.403908 21.463257 6.585624 2.174554 -7.223875 -0.625450 -2.381467 7.553720 -12.244473 21.070505 -8.661810 -24.825237 2.181649 1.427936 0.064982 -3.638230 -5.957868 11.693698 
0.257636 52.284927 -0.654978 -10.283202 -0.156250 6.845677 29.931641 1.640625 0.547154 -0.615234 1.904297 -1.991863 -10.156250 -3.876953 0.565746 6.679687 1.943359 -7.490235 -4.521484 -12.167969 -0.634766 -49.511719 1.005859 -3.368969 -29.599607 -5.000000 27.715694 -26.367189 -5.654297 24.013672 -1.103516 12.314453 -0.656380 46.591797 2.548828 -0.185113 36.162109 4.990234 26.484371 27.119141 -20.468750 6.266117 16.392996 21.471796 6.556441 2.183418 -7.221185 -0.626453 -2.362855 7.626388 -12.216015 21.060266 -8.681740 -24.820395 2.197396 1.458072 0.046377 -3.597114 -5.926446 11.707046 
0.259681 52.284927 -0.659977 -10.283202 -0.146484 6.845681 29.941408 1.601563 0.537380 -0.605469 1.914066 -1.982092 -10.087891 -3.886719 0.555979 6.689453 1.972656 -7.480469 -4.511718 -12.167969 -0.632707 -49.521484 1.015625 -3.378731 -29.677732 -5.000000 27.696161 -26.308596 -5.693360 24.062498 -1.083984 12.324219 -0.656381 46.582031 2.548828 -0.195313 36.142582 4.990234 26.395636 27.148439 -20.595703 6.285629 16.404171 21.463642 6.555552 2.183870 -7.251887 -0.655710 -2.390247 7.574997 -12.246126 21.059479 -8.661712 -24.845060 2.150029 1.387368 0.053646 -3.590669 -5.912583 11.691975 
0.261726 52.284927 -0.664978 -10.283202 -0.126953 6.845682 29.951172 1.572266 0.498047 -0.595703 1.923832 -1.962559 -10.019531 -3.896484 0.556641 6.699219 1.992188 -7.460597 -4.511718 -12.167969 -0.632707 -49.541016 1.005859 -3.398266 -29.736328 -5.000000 27.685547 -26.240232 -5.732422 24.110353 -1.064453 12.333983 -0.654297 46.582031 2.539063 -0.214844 36.132813 4.990234 26.318357 27.158201 -20.722656 6.328125 16.383118 21.442169 6.528563 2.183889 -7.251953 -0.665457 -2.425555 7.664747 -12.219282 21.049269 -8.681664 -24.830221 2.144254 1.416048 0.004447 -3.559422 -5.912067 11.681785 
0.263622 52.284927 -0.671904 -10.283202 -0.126953 6.845682 29.960939 1.542969 0.498310 -0.585938 1.933594 -1.982422 -9.960937 -3.906250 0.546210 6.738281 2.011719 -7.441064 -4.492187 -12.187499 -0.652235 -49.570309 1.015625 -3.408028 -29.833986 -5.000000 27.617186 -26.230469 -5.751953 24.228516 -1.035156 12.324220 -0.666147 46.572266 2.558594 -0.214408 36.113281 4.990234 26.239388 27.099609 -20.781250 6.337891 16.383118 21.442173 6.528563 2.183870 -7.251889 -0.655710 -2.402232 7.652247 -12.246916 21.049194 -8.681620 -24.850206 2.139831 1.387543 -0.005455 -3.565231 -5.895713 11.698699 
